<svg id="レイヤー_1" xmlns="http://www.w3.org/2000/svg" viewBox="0 0 433.67 446.71"><style>.st0{fill:none;stroke:#000;stroke-linecap:round;stroke-linejoin:round;stroke-miterlimit:10}.st2{font-family:&apos;Helvetica&apos;}.st3{font-size:8px}.st4{font-family:&apos;Helvetica-Bold&apos;}.st5{fill:#e4812f}.st6{fill:#ba2e2c}.st7{fill:#bfa628}.st8{fill:#bfa600}.st9{fill:#4c72ae}.st10,.st11{fill:none;stroke:#000;stroke-width:.75;stroke-linecap:round;stroke-linejoin:round;stroke-miterlimit:10}.st11{stroke-linecap:square}</style><path class="st0" d="M.5 10.71h432.67"/><path fill="none" stroke="#000" stroke-linecap="round" stroke-linejoin="round" stroke-miterlimit="10" stroke-dasharray="0,3" d="M143.97 377.93V10.71"/><path class="st0" d="M104 377.93h199.84M104 377.93v7.2M143.97 377.93v7.2M183.94 377.93v7.2M223.9 377.93v7.2M263.87 377.93v7.2M303.84 377.93v7.2"/><text transform="translate(98.436 403.853)" class="st2 st3">0.5</text><text transform="translate(141.736 403.853)" class="st2 st3">1</text><text transform="translate(181.707 403.853)" class="st2 st3">2</text><text transform="translate(221.676 403.853)" class="st2 st3">4</text><text transform="translate(261.647 403.853)" class="st2 st3">8</text><text transform="translate(299.386 403.853)" class="st2 st3">16</text><text transform="translate(185.506 425.452)"><tspan x="0" y="0" class="st2 st3">Odds </tspan><tspan x="21.34" y="0" class="st2 st3">r</tspan><tspan x="23.94" y="0" class="st2 st3">atio</tspan></text><text transform="translate(8.829 22.274)"><tspan x="0" y="0" class="st4 st3">Type 2 diabetes</tspan><tspan x="0" y="11" class="st2 st3"> </tspan><tspan x="8.89" y="11" class="st5 st2 st3">BS</tspan><tspan x="0" y="22" class="st5 st2 st3"> HbA1c</tspan><tspan x="0" y="33" class="st2 st3"> </tspan><tspan x="8.89" y="33" class="st6 st2 st3">ALT</tspan><tspan x="0" y="44" class="st2 st3"> </tspan><tspan x="8.89" y="44" class="st7 st2 st3">SBP</tspan><tspan x="0" y="55" class="st7 st2 st3"> MAP</tspan><tspan x="0" y="66" class="st4 st3">Ischemic stroke</tspan><tspan x="0" y="77" class="st2 st3"> </tspan><tspan x="6.67" y="77" class="st8 st2 st3"> SBP</tspan><tspan x="0" y="88" class="st8 st2 st3"> DBP</tspan><tspan x="0" y="99" class="st8 st2 st3"> MAP</tspan><tspan x="0" y="110" class="st4 st3">Cerebral aneurysm</tspan><tspan x="0" y="121" class="st2 st3"> </tspan><tspan x="4.45" y="121" class="st8 st2 st3"> SBP</tspan><tspan x="0" y="132" class="st8 st2 st3"> DBP</tspan><tspan x="0" y="143" class="st8 st2 st3"> MAP</tspan><tspan x="0" y="154" class="st8 st2 st3"> PP</tspan><tspan x="0" y="165" class="st4 st3">Myocardial infarction</tspan><tspan x="0" y="176" class="st2 st3"> </tspan><tspan x="6.67" y="176" class="st9 st2 st3"> BMI</tspan><tspan x="0" y="187" class="st2 st3"> </tspan><tspan x="6.67" y="187" class="st5 st2 st3"> HDL-C</tspan><tspan x="0" y="198" class="st5 st2 st3"> TG</tspan><tspan x="0" y="209" class="st5 st2 st3"> HbA1c</tspan><tspan x="0" y="220" class="st4 st3">Peripheral artery disease</tspan><tspan x="0" y="231" class="st2 st3"> </tspan><tspan x="6.67" y="231" class="st5 st2 st3"> HbA1c</tspan><tspan x="0" y="242" class="st8 st2 st3"> SBP</tspan><tspan x="0" y="253" class="st8 st2 st3"> PP</tspan><tspan x="0" y="264" class="st4 st3">Atrial fibrillation</tspan><tspan x="0" y="275" class="st2 st3"> </tspan><tspan x="6.67" y="275" class="st9 st2 st3"> Height</tspan><tspan x="0" y="286" class="st2 st3"> </tspan><tspan x="8.89" y="286" class="st8 st2 st3">SBP</tspan><tspan x="0" y="297" class="st8 st2 st3"> MAP</tspan><tspan x="0" y="308" class="st4 st3">Asthma</tspan><tspan x="0" y="319" class="st2 st3"> </tspan><tspan x="8.89" y="319" class="st9 st2 st3">BMI</tspan><tspan x="0" y="330" class="st4 st3">Urolithiasis</tspan><tspan x="0" y="341" class="st2 st3"> </tspan><tspan x="4.45" y="341" class="st8 st2 st3"> DBP</tspan></text><text transform="translate(303.836 33.274)"><tspan x="0" y="0" class="st2 st3">5.03</tspan><tspan x="0" y="11" class="st2 st3">3.77</tspan><tspan x="0" y="22" class="st2 st3">1.35</tspan><tspan x="0" y="33" class="st2 st3">1.44</tspan><tspan x="0" y="44" class="st2 st3">1.38</tspan><tspan x="0" y="66" class="st2 st3">2.86</tspan><tspan x="0" y="77" class="st2 st3">4.49</tspan><tspan x="0" y="88" class="st2 st3">3.14</tspan><tspan x="0" y="110" class="st2 st3">6.49</tspan><tspan x="0" y="121" class="st2 st3">6.13</tspan><tspan x="0" y="132" class="st2 st3">5.13</tspan><tspan x="0" y="143" class="st2 st3">3.64</tspan><tspan x="0" y="165" class="st2 st3">1.50</tspan><tspan x="0" y="176" class="st2 st3">0.70</tspan><tspan x="0" y="187" class="st2 st3">1.39</tspan><tspan x="0" y="198" class="st2 st3">1.43</tspan><tspan x="0" y="220" class="st2 st3">2.10</tspan><tspan x="0" y="231" class="st2 st3">2.36</tspan><tspan x="0" y="242" class="st2 st3">3.67</tspan><tspan x="0" y="264" class="st2 st3">1.31</tspan><tspan x="0" y="275" class="st2 st3">3.50</tspan><tspan x="0" y="286" class="st2 st3">3.09</tspan><tspan x="0" y="308" class="st2 st3">1.39</tspan><tspan x="0" y="330" class="st2 st3">1.81</tspan></text><text transform="translate(325.077 33.274)"><tspan x="0" y="0" class="st2 st3">(4.29, 5.90)</tspan><tspan x="0" y="11" class="st2 st3">(3.42, 4.16)</tspan><tspan x="0" y="22" class="st2 st3">(1.15, 1.59)</tspan><tspan x="0" y="33" class="st2 st3">(1.20, 1.73)</tspan><tspan x="0" y="44" class="st2 st3">(1.16, 1.64)</tspan><tspan x="0" y="66" class="st2 st3">(1.93, 4.24)</tspan><tspan x="0" y="77" class="st2 st3">(2.78, 7.25)</tspan><tspan x="0" y="88" class="st2 st3">(2.18, 4.52)</tspan><tspan x="0" y="110" class="st2 st3">(4.24, 9.92)</tspan><tspan x="0" y="121" class="st2 st3">(3.66, 10.26)</tspan><tspan x="0" y="132" class="st2 st3">(3.46, 7.60)</tspan><tspan x="0" y="143" class="st2 st3">(2.06, 6.43)</tspan><tspan x="0" y="165" class="st2 st3">(1.26, 1.79)</tspan><tspan x="0" y="176" class="st2 st3">(0.64, 0.77)</tspan><tspan x="0" y="187" class="st2 st3">(1.23, 1.57)</tspan><tspan x="0" y="198" class="st2 st3">(1.24, 1.66)</tspan><tspan x="0" y="220" class="st2 st3">(1.65, 2.68)</tspan><tspan x="0" y="231" class="st2 st3">(1.50, 3.74)</tspan><tspan x="0" y="242" class="st2 st3">(1.97, 6.84)</tspan><tspan x="0" y="264" class="st2 st3">(1.21, 1.43)</tspan><tspan x="0" y="275" class="st2 st3">(2.59, 4.73)</tspan><tspan x="0" y="286" class="st2 st3">(2.33, 4.09)</tspan><tspan x="0" y="308" class="st2 st3">(1.18, 1.64)</tspan><tspan x="0" y="330" class="st2 st3">(1.28, 2.55)</tspan></text><text transform="translate(380.41 33.274)" class="st2 st3">9.01 × 10</text><text transform="matrix(.583 0 0 .583 413.997 30.61)" class="st2 st3">−88</text><text transform="translate(380.41 44.274)" class="st2 st3">6.83 × 10</text><text transform="matrix(.583 0 0 .583 413.997 41.61)" class="st2 st3">−155</text><text transform="translate(380.41 55.274)" class="st2 st3">2.01 × 10</text><text transform="matrix(.583 0 0 .583 413.997 52.61)" class="st2 st3">−4</text><text transform="translate(380.41 66.274)" class="st2 st3">9.26 × 10</text><text transform="matrix(.583 0 0 .583 413.997 63.61)" class="st2 st3">−5</text><text transform="translate(380.41 77.274)" class="st2 st3">2.16 × 10</text><text transform="matrix(.583 0 0 .583 413.997 74.61)" class="st2 st3">−4</text><text transform="translate(380.41 99.274)" class="st2 st3">1.59 × 10</text><text transform="matrix(.583 0 0 .583 413.997 96.61)" class="st2 st3">−7</text><text transform="translate(380.41 110.274)" class="st2 st3">7.90 × 10</text><text transform="matrix(.583 0 0 .583 413.997 107.61)" class="st2 st3">−10</text><text transform="translate(380.41 121.274)" class="st2 st3">7.20 × 10</text><text transform="matrix(.583 0 0 .583 413.997 118.61)" class="st2 st3">−10</text><text transform="translate(380.41 143.274)" class="st2 st3">5.94 × 10</text><text transform="matrix(.583 0 0 .583 413.997 140.61)" class="st2 st3">−18</text><text transform="translate(380.41 154.274)" class="st2 st3">5.33 × 10</text><text transform="matrix(.583 0 0 .583 413.997 151.61)" class="st2 st3">−12</text><text transform="translate(380.41 165.274)" class="st2 st3">4.11 × 10</text><text transform="matrix(.583 0 0 .583 413.997 162.61)" class="st2 st3">−16</text><text transform="translate(380.41 176.274)" class="st2 st3">8.34 × 10</text><text transform="matrix(.583 0 0 .583 413.997 173.61)" class="st2 st3">−6</text><text transform="translate(380.41 198.274)" class="st2 st3">4.04 × 10</text><text transform="matrix(.583 0 0 .583 413.997 195.61)" class="st2 st3">−6</text><text transform="translate(380.41 209.274)" class="st2 st3">6.56 × 10</text><text transform="matrix(.583 0 0 .583 413.997 206.61)" class="st2 st3">−13</text><text transform="translate(380.41 220.274)" class="st2 st3">1.38 × 10</text><text transform="matrix(.583 0 0 .583 413.997 217.61)" class="st2 st3">−7</text><text transform="translate(380.41 231.274)" class="st2 st3">8.54 × 10</text><text transform="matrix(.583 0 0 .583 413.997 228.61)" class="st2 st3">−7</text><text transform="translate(380.41 253.274)" class="st2 st3">1.76 × 10</text><text transform="matrix(.583 0 0 .583 413.997 250.61)" class="st2 st3">−9</text><text transform="translate(380.41 264.274)" class="st2 st3">2.26 × 10</text><text transform="matrix(.583 0 0 .583 413.997 261.61)" class="st2 st3">−4</text><text transform="translate(380.41 275.274)" class="st2 st3">4.17 × 10</text><text transform="matrix(.583 0 0 .583 413.997 272.61)" class="st2 st3">−5</text><text transform="translate(380.41 297.274)" class="st2 st3">4.53 × 10</text><text transform="matrix(.583 0 0 .583 413.997 294.61)" class="st2 st3">−10</text><text transform="translate(380.41 308.274)" class="st2 st3">3.02 × 10</text><text transform="matrix(.583 0 0 .583 413.997 305.61)" class="st2 st3">−16</text><text transform="translate(380.41 319.274)" class="st2 st3">3.47 × 10</text><text transform="matrix(.583 0 0 .583 413.997 316.61)" class="st2 st3">−15</text><text transform="translate(380.41 341.274)" class="st2 st3">1.08 × 10</text><text transform="matrix(.583 0 0 .583 413.997 338.61)" class="st2 st3">−4</text><text transform="translate(380.41 363.274)" class="st2 st3">6.90 × 10</text><text transform="matrix(.583 0 0 .583 413.997 360.61)" class="st2 st3">−4</text><path class="st10" d="M154.46 64.95v-2.79M158.43 360.82h39.53M158.43 362.21v-2.79M197.96 362.21v-2.79"/><path d="M178.19 362a1.16 1.16 0 1 1 1.16-1.16c-.01.64-.52 1.16-1.16 1.16z"/><path class="st10" d="M153.32 338.48h19.17M153.32 339.88v-2.79M172.49 339.88v-2.79"/><path d="M162.9 340.24a1.72 1.72 0 1 1 0-3.44 1.72 1.72 0 0 1 0 3.44z"/><path class="st10" d="M192.84 316.54h32.41M192.84 317.94v-2.79M225.25 317.94v-2.79"/><path d="M209.04 317.84c-.7 0-1.27-.57-1.27-1.27 0-.7.57-1.27 1.27-1.27.7 0 1.27.57 1.27 1.27.01.7-.56 1.27-1.27 1.27z"/><path class="st10" d="M198.92 305.57h34.67M198.92 306.97v-2.79M233.59 306.97v-2.79"/><path d="M216.25 306.82c-.68 0-1.24-.55-1.24-1.24s.55-1.24 1.24-1.24a1.24 1.24 0 1 1 0 2.48z"/><path class="st10" d="M154.78 294.6h9.91M154.78 296v-2.79M164.69 296v-2.79"/><path d="M159.72 297.41c-1.52 0-2.75-1.23-2.75-2.75s1.23-2.75 2.75-2.75 2.75 1.23 2.75 2.75-1.23 2.75-2.75 2.75z"/><path class="st10" d="M183.09 272.56h71.74M183.09 273.95v-2.79M254.83 273.95v-2.79"/><path d="M218.95 273.49c-.5 0-.92-.41-.92-.92 0-.5.41-.91.92-.91.5 0 .92.41.92.91a.93.93 0 0 1-.92.92z"/><g><path class="st10" d="M167.21 261.59h52.75M167.21 262.98v-2.79M219.96 262.98v-2.79"/><path d="M193.58 262.63c-.56 0-1.02-.46-1.02-1.02s.46-1.02 1.02-1.02 1.02.46 1.02 1.02-.45 1.02-1.02 1.02z"/></g><g><path class="st10" d="M172.86 250.62h27.9M172.86 252.01v-2.79M200.76 252.01v-2.79"/><path d="M186.8 252.02c-.76 0-1.38-.62-1.38-1.38 0-.76.62-1.38 1.38-1.38.76 0 1.38.62 1.38 1.38 0 .76-.62 1.38-1.38 1.38z"/></g><g><path class="st10" d="M156.49 228.92h16.57M156.49 230.32v-2.79M173.06 230.32v-2.79"/><path d="M164.76 230.85a1.9 1.9 0 1 1 0-3.8 1.9 1.9 0 1 1 0 3.8z"/></g><g><path class="st10" d="M155.83 217.95h14.05M155.83 219.35v-2.79M169.88 219.35v-2.79"/><path d="M162.83 220.12a2.121 2.121 0 0 1 0-4.24 2.121 2.121 0 0 1 0 4.24z"/></g><g><path class="st10" d="M118.06 206.98h11.1M118.06 208.38v-2.79M129.16 208.38v-2.79"/><path d="M123.6 209.55c-1.39 0-2.53-1.13-2.53-2.53 0-1.39 1.13-2.53 2.53-2.53 1.39 0 2.53 1.13 2.53 2.53s-1.14 2.53-2.53 2.53z"/></g><g><path class="st10" d="M157.45 196.01h19.95M157.45 197.41v-2.79M177.4 197.41v-2.79"/><path d="M167.42 197.72c-.93 0-1.68-.75-1.68-1.68 0-.93.76-1.68 1.68-1.68s1.68.76 1.68 1.68c.01.93-.75 1.68-1.68 1.68z"/></g><g><path class="st10" d="M185.7 173.25h65.53M185.7 174.64v-2.79M251.23 174.64v-2.79"/><path d="M218.46 174.21a.939.939 0 1 1 0-1.88.939.939 0 1 1 0 1.88z"/></g><g><path class="st10" d="M215.5 162.28h45.4M215.5 163.67v-2.79M260.9 163.67v-2.79"/><path d="M238.2 163.38c-.6 0-1.09-.49-1.09-1.09 0-.6.49-1.09 1.09-1.09.6 0 1.09.49 1.09 1.09 0 .6-.49 1.09-1.09 1.09z"/></g><g><path class="st10" d="M218.79 151.31h59.42M218.79 152.7v-2.79M278.21 152.7v-2.79"/><path d="M248.5 152.3c-.54 0-.98-.44-.98-.98s.44-.98.98-.98.98.44.98.98c-.01.54-.45.98-.98.98z"/></g><g><path class="st10" d="M227.32 140.34h48.96M227.32 141.74v-2.79M276.28 141.74v-2.79"/><path d="M251.78 141.41a1.05 1.05 0 1 1 0-2.1 1.05 1.05 0 0 1 0 2.1z"/></g><g><path class="st10" d="M188.99 118.4h42M188.99 119.8v-2.79M230.99 119.8v-2.79"/><path d="M209.99 119.54c-.62 0-1.13-.51-1.13-1.13 0-.62.51-1.13 1.13-1.13a1.129 1.129 0 1 1 0 2.26z"/></g><g><path class="st10" d="M202.97 107.43h55.25M202.97 108.83v-2.79M258.22 108.83v-2.79"/><path d="M230.59 108.45a1.005 1.005 0 0 1 0-2.01 1.005 1.005 0 0 1 0 2.01z"/></g><g><path class="st10" d="M181.91 96.47h45.32M181.91 97.86v-2.79M227.23 97.86v-2.79"/><path d="M204.57 97.57c-.6 0-1.09-.49-1.09-1.09 0-.6.49-1.09 1.09-1.09.6 0 1.09.49 1.09 1.09 0 .6-.49 1.09-1.09 1.09z"/></g><g><path class="st10" d="M152.74 74.53h19.78M152.74 75.92v-2.79M172.52 75.92v-2.79"/><path d="M162.62 76.25c-.93 0-1.69-.76-1.69-1.69 0-.93.76-1.69 1.69-1.69.93 0 1.69.76 1.69 1.69 0 .94-.76 1.69-1.69 1.69z"/></g><g><path class="st10" d="M154.46 63.56h21.1M175.56 64.95v-2.79"/><path d="M165 65.22a1.62 1.62 0 1 1 0-3.24 1.62 1.62 0 0 1 0 3.24z"/></g><g><path class="st10" d="M152.2 52.59h18.36M152.2 53.98v-2.79M170.56 53.98v-2.79"/><path d="M161.38 54.4c-.98 0-1.77-.8-1.77-1.77 0-.98.8-1.77 1.77-1.77.98 0 1.77.8 1.77 1.77.01.97-.79 1.77-1.77 1.77z"/></g><g><path class="st10" d="M214.9 41.62h11.33M214.9 43.02v-2.79M226.23 43.02v-2.79"/><path d="M220.56 44.16c-1.37 0-2.49-1.12-2.49-2.49s1.12-2.49 2.49-2.49 2.49 1.12 2.49 2.49-1.12 2.49-2.49 2.49z"/></g><g><path class="st10" d="M227.91 30.65h18.39M227.91 32.05v-2.79M246.3 32.05v-2.79"/><path d="M237.1 32.46c-.98 0-1.77-.79-1.77-1.77s.79-1.77 1.77-1.77 1.77.79 1.77 1.77c-.01.98-.8 1.77-1.77 1.77z"/></g><g><text transform="translate(303.836 6.872)" class="st2 st3">Odds ratio (95% CI)</text></g><g><text transform="translate(380.41 6.872)" class="st2 st3">P-value</text></g><g><text transform="translate(8.829 444.303)" class="st2 st3">Quantitative trait categories</text><path class="st6" d="M240.49 438.95h6.23v6.23h-6.23z"/><path class="st11" d="M240.49 438.95h6.23v6.23h-6.23z"/><text transform="translate(251.828 444.303)" class="st2 st3">Liver-related</text><path fill="#f3de67" d="M304.04 438.95h6.23v6.23h-6.23z"/><path class="st11" d="M304.04 438.95h6.23v6.23h-6.23z"/><text transform="translate(315.38 444.303)" class="st2 st3">Blood pressure</text><g><path class="st9" d="M113.83 438.95h6.23v6.23h-6.23z"/><path class="st11" d="M113.83 438.95h6.23v6.23h-6.23z"/><text transform="translate(125.169 444.303)" class="st2 st3">Anthropometric</text></g><g><path class="st5" d="M187.16 438.95h6.23v6.23h-6.23z"/><path class="st11" d="M187.16 438.95h6.23v6.23h-6.23z"/><text transform="translate(198.503 444.303)" class="st2 st3">Matabolic</text></g></g></svg>