<?xml version="1.0" encoding="utf-8"?>
<!-- Generator: Adobe Illustrator 26.1.0, SVG Export Plug-In . SVG Version: 6.00 Build 0)  -->
<svg version="1.1" xmlns="http://www.w3.org/2000/svg" xmlns:xlink="http://www.w3.org/1999/xlink" x="0px" y="0px"
	 viewBox="0 0 74 84.29" style="enable-background:new 0 0 74 84.29;" xml:space="preserve">
<style type="text/css">
	.st0{fill:#FFFFFF;stroke:#376795;stroke-width:2;stroke-miterlimit:10;}
	.st1{fill:#D88782;stroke:#D88782;stroke-linecap:round;stroke-miterlimit:10;}
	.st2{fill:#376795;stroke:#376795;stroke-linecap:round;stroke-miterlimit:10;}
	.st3{display:none;}
	.st4{display:inline;}
	.st5{fill:#224059;}
	.st6{font-family:'Arial-Black';}
	.st7{font-size:15px;}
</style>
<g id="Background">
	<polygon class="st0" points="73,62.93 73,21.36 37,0.58 1,21.36 1,62.93 37,83.72 	"/>
</g>
<g id="Icon">
	<path class="st1" d="M35.65,38.44c-3.01-2.7-3.89-5.07-4.15-7.23c-0.09-0.81,0.21-4.19,0.28-5.02c0.07-0.83,0.21-1.66,0.49-2.46
		c-0.45,0.72-0.74,1.54-1.04,2.35c-2.53,6.72-0.48,11.14,2.62,15.22c2.49,3.28,7.09,6.11,8.65,7.71c2.49,2.56,4.04,5.32,3.73,9.28
		c-0.07,0.83-0.21,1.66-0.49,2.46c0.45-0.72,0.79-1.52,1.04-2.35c1.31-4.22,0.59-7.65-1.78-11C42.32,43.63,36.37,39.09,35.65,38.44z
		"/>
	<path class="st2" d="M29.99,64.06h-1.12h-0.38H18.6c-1.09-2.57-1.38-4.91-0.13-7.9h6.93v1.96l1.5-3h-1.44H25.4h-6.44
		c0.69-1.27,1.66-2.44,2.73-3.41c-0.29-0.24-0.58-0.49-0.87-0.75c-0.99,0.61-1.97,1.25-2.91,2.05c-7.66,6.6-0.67,16.24,5.8,19.51
		c-1.58-2.3-3.41-4.94-4.63-7.43h9.41v1.96L29.99,64.06z"/>
	<path class="st2" d="M50.41,11.76c1.8,2.51,3.83,5.39,5.06,8.12H44.35v-1.96l-1.5,3h1.49h0.01h11.56c0.92,2.5,1,5.01-0.48,7.9
		h-7.69c0,0,0,0-0.01,0v-1.96l-1.5,3h1.5v0c0,0,0,0,0.01,0h7.09c-0.69,1.06-1.51,1.97-2.42,2.78c-0.39,0.35-0.79,0.67-1.21,0.99
		c0.2,0.18,0.41,0.37,0.61,0.56c1.44-0.9,2.94-1.77,4.32-2.97C63.32,24.94,57.58,15.79,50.41,11.76z"/>
	<path class="st1" d="M45.08,25.23h-0.86h-0.64h-9.83c0.08,0.33,0.19,0.68,0.34,1.04h9.5v1.96L45.08,25.23z"/>
	<path class="st1" d="M43.45,57.72h-8.46v-1.96l-1.5,3h0.95h0.55h8.84C43.73,58.4,43.6,58.06,43.45,57.72z"/>
</g>
<g id="Icon_x5F_bak" class="st3">
	<g class="st4">
		<path class="st2" d="M44.34,20.92h11.57c0.92,2.5,1,5.01-0.48,7.9h-7.69c-0.29,0-0.52,0.23-0.52,0.52c0,0.29,0.23,0.52,0.52,0.52
			h7.09c-0.69,1.06-1.51,1.97-2.42,2.78c-0.39,0.35-0.79,0.67-1.21,0.99c0.2,0.18,0.41,0.37,0.61,0.56c1.44-0.9,2.94-1.77,4.32-2.97
			c7.17-6.28,1.43-15.43-5.74-19.46c1.8,2.51,3.83,5.39,5.06,8.12H44.34c-0.29,0-0.52,0.23-0.52,0.52
			C43.82,20.69,44.06,20.92,44.34,20.92z M28.86,64.06H18.6c-1.09-2.57-1.38-4.91-0.13-7.9h6.99c0.29,0,0.52-0.23,0.52-0.52
			c0-0.29-0.23-0.52-0.52-0.52h-6.5c0.69-1.27,1.66-2.44,2.73-3.41c-0.29-0.24-0.58-0.49-0.87-0.75c-0.99,0.61-1.97,1.25-2.91,2.05
			c-7.66,6.6-0.67,16.24,5.8,19.51c-1.58-2.3-3.41-4.94-4.63-7.43h9.78c0.29,0,0.52-0.23,0.52-0.52
			C29.38,64.3,29.15,64.06,28.86,64.06z"/>
		<g>
			<path class="st1" d="M34.08,26.27c-0.14-0.36-0.25-0.71-0.34-1.04h10.47c0.29,0,0.52,0.23,0.52,0.52c0,0.29-0.23,0.52-0.52,0.52
				H34.08z"/>
			<path class="st1" d="M34.44,57.72c-0.69,0-0.69,1.04,0,1.04h9.39c-0.1-0.35-0.23-0.7-0.38-1.04H34.44z"/>
			<path class="st1" d="M35.65,38.44c-3.01-2.7-3.89-5.07-4.15-7.23c-0.09-0.81,0.21-4.19,0.28-5.02c0.07-0.83,0.21-1.66,0.49-2.46
				c-0.45,0.72-0.74,1.54-1.04,2.35c-2.53,6.72-0.48,11.14,2.62,15.22c2.49,3.28,7.09,6.11,8.65,7.71c2.49,2.56,4.04,5.32,3.73,9.28
				c-0.07,0.83-0.21,1.66-0.49,2.46c0.45-0.72,0.79-1.52,1.04-2.35c1.31-4.22,0.59-7.65-1.78-11
				C42.32,43.63,36.37,39.09,35.65,38.44z"/>
		</g>
	</g>
</g>
<g id="Text">
	<text transform="matrix(1 0 0 1 2.4185 46.1636)" class="st5 st6 st7">SLALOM</text>
</g>
</svg>
